<svg width="413" height="413" viewBox="0 0 413 413" fill="none" xmlns="http://www.w3.org/2000/svg">
<path d="M103.074 103.068C123.229 82.9123 155.908 82.9129 176.064 103.069C195.274 122.279 196.175 152.867 178.765 173.144L142.778 137.157L137.163 142.771L173.15 178.759C152.873 196.169 122.285 195.27 103.074 176.059C82.9179 155.903 82.9179 123.223 103.074 103.068Z" fill="#E6FF32"/>
<path fill-rule="evenodd" clip-rule="evenodd" d="M239.129 233.516C259.407 216.104 289.995 217.004 309.207 236.215C329.362 256.371 329.362 289.05 309.207 309.206C289.051 329.361 256.372 329.361 236.217 309.205C217.006 289.994 216.105 259.408 233.514 239.13L270.303 275.919L275.917 270.304L239.129 233.516Z" fill="#FFFFFF"/>
<path fill-rule="evenodd" clip-rule="evenodd" d="M236.217 103.068C256.372 82.9128 289.051 82.9123 309.207 103.068C329.362 123.223 329.362 155.903 309.207 176.059C289.996 195.269 259.408 196.169 239.131 178.759L275.118 142.771L269.504 137.157L233.516 173.145C216.105 152.867 217.006 122.28 236.217 103.068Z" fill="#FFFFFF"/>
<path fill-rule="evenodd" clip-rule="evenodd" d="M103.065 236.216C122.277 217.004 152.866 216.105 173.143 233.517L136.356 270.304L141.97 275.919L178.758 239.132C196.166 259.409 195.265 289.995 176.055 309.206C155.9 329.361 123.221 329.361 103.065 309.205C82.9097 289.049 82.9095 256.371 103.065 236.216Z" fill="#FFFFFF"/>
</svg>
